mtllib model_0.mtl
o model_0
v -0.0004880799970123917 -0.5964824557304382 1.1614339351654053 
v -0.4215923249721527 -0.4215923249721527 1.1614339351654053 
v -0.29848527908325195 -0.7205665707588196 0.9999182820320129 
v 0.2984861731529236 0.7205674648284912 0.9999182820320129 
v 0.38251158595085144 0.923791766166687 0.7651044726371765 
v 0.7068888545036316 0.7068888545036316 0.8098617792129517 
v 0.7205674648284912 0.2984861731529236 0.9999182820320129 
v 1.0000008344650269 -0.0004880799970123917 0.8098617792129517 
v 0.923791766166687 0.38251158595085144 0.7651044726371765 
v 0.42159318923950195 0.42159318923950195 1.1614339351654053 
v 0.7205674648284912 0.2984861731529236 0.9999182820320129 
v 0.5964833498001099 0.0004889600095339119 1.1614339351654053 
v 0.7205674648284912 -0.29848527908325195 0.9999182820320129 
v 0.7068888545036316 -0.7068880200386047 0.8098617792129517 
v 0.923791766166687 -0.3825107216835022 0.7651044726371765 
v 0.2984861731529236 -0.7205665707588196 0.9999182820320129 
v 0.38251158595085144 -0.9237908720970154 0.7651044726371765 
v 0.0004889600095339119 -1 0.8098617792129517 
v -0.4215923249721527 0.42159318923950195 1.1614339351654053 
v 0.0004889600095339119 0.5964833498001099 1.1614339351654053 
v -0.29848527908325195 0.7205674648284912 0.9999182820320129 
v -0.5964824557304382 -0.0004880799970123917 1.1614339351654053 
v -0.4215923249721527 -0.4215923249721527 1.1614339351654053 
v -0.7205665707588196 -0.29848527908325195 0.9999182820320129 
v -0.5964824557304382 -0.0004880799970123917 1.1614339351654053 
v -0.4215923249721527 0.42159318923950195 1.1614339351654053 
v -0.7205665707588196 0.2984861731529236 0.9999182820320129 
v -0.0004880799970123917 -0.5964824557304382 1.1614339351654053 
v 0.42159318923950195 -0.4215923249721527 1.1614339351654053 
v 0.2984861731529236 -0.7205665707588196 0.9999182820320129 
v 0.0004889600095339119 -1 0.8098617792129517 
v -0.29848527908325195 -0.7205665707588196 0.9999182820320129 
v -0.3825107216835022 -0.9237908720970154 0.7651044726371765 
v -0.7068880200386047 -0.7068880200386047 0.8098617792129517 
v -0.9237908720970154 -0.3825107216835022 0.7651044726371765 
v -0.7205665707588196 -0.29848527908325195 0.9999182820320129 
v -1 0.0004889600095339119 0.8098617792129517 
v -0.7205665707588196 0.2984861731529236 0.9999182820320129 
v -0.9237908720970154 0.38251158595085144 0.7651044726371765 
v -0.7068880200386047 0.7068888545036316 0.8098617792129517 
v -0.3825107216835022 0.923791766166687 0.7651044726371765 
v -0.29848527908325195 0.7205674648284912 0.9999182820320129 
v 0.5964833498001099 0.0004889600095339119 1.1614339351654053 
v 0.42159318923950195 -0.4215923249721527 1.1614339351654053 
v 0.7205674648284912 -0.29848527908325195 0.9999182820320129 
v 0.0004889600095339119 0.5964833498001099 1.1614339351654053 
v 0.2984861731529236 0.7205674648284912 0.9999182820320129 
v 0.42159318923950195 0.42159318923950195 1.1614339351654053 
v -0.7068880200386047 -0.7068880200386047 0.8098617792129517 
v -0.3825107216835022 -0.9237908720970154 0.7651044726371765 
v -0.29848527908325195 -0.7205665707588196 0.9999182820320129 
v -1 0.0004889600095339119 0.8098617792129517 
v -0.7205665707588196 -0.29848527908325195 0.9999182820320129 
v -0.9237908720970154 -0.3825107216835022 0.7651044726371765 
v -0.7068880200386047 0.7068888545036316 0.8098617792129517 
v -0.9237908720970154 0.38251158595085144 0.7651044726371765 
v -0.7205665707588196 0.2984861731529236 0.9999182820320129 
v 0.0004889600095339119 1.0000008344650269 0.8098617792129517 
v -0.29848527908325195 0.7205674648284912 0.9999182820320129 
v -0.3825107216835022 0.923791766166687 0.7651044726371765 
v 0.0004889600095339119 1.0000008344650269 0.8098617792129517 
v 0.2984861731529236 0.7205674648284912 0.9999182820320129 
v 0.38251158595085144 0.923791766166687 0.7651044726371765 
v 0.7068888545036316 0.7068888545036316 0.8098617792129517 
v 0.923791766166687 0.38251158595085144 0.7651044726371765 
v 0.7205674648284912 0.2984861731529236 0.9999182820320129 
v 1.0000008344650269 -0.0004880799970123917 0.8098617792129517 
v 0.7205674648284912 -0.29848527908325195 0.9999182820320129 
v 0.923791766166687 -0.3825107216835022 0.7651044726371765 
v 0.7068888545036316 -0.7068880200386047 0.8098617792129517 
v 0.38251158595085144 -0.9237908720970154 0.7651044726371765 
v 0.2984861731529236 -0.7205665707588196 0.9999182820320129 
v 0.0004889600095339119 -0.22227616608142853 0.040554583072662354 
v 0.38251158595085144 -0.9237908720970154 0.7274823188781738 
v 0.0004889600095339119 -1 0.6840223073959351 
v 0.38251158595085144 -0.9237908720970154 0.7274823188781738 
v 0.7068888545036316 -0.7068880200386047 0.6840223073959351 
v 0.15779240429401398 -0.15779152512550354 0.040554583072662354 
v 0.15779240429401398 -0.15779152512550354 0.040554583072662354 
v 0.923791766166687 -0.3825107216835022 0.7274823188781738 
v 0.7068888545036316 -0.7068880200386047 0.6840223073959351 
v 0.923791766166687 -0.3825107216835022 0.7274823188781738 
v 1.0000008344650269 -0.0004880799970123917 0.6840223073959351 
v 0.22227704524993896 0.0004889600095339119 0.040554583072662354 
v 0.22227704524993896 0.0004889600095339119 0.040554583072662354 
v 0.923791766166687 0.38251158595085144 0.7274823188781738 
v 1.0000008344650269 -0.0004880799970123917 0.6840223073959351 
v 0.923791766166687 0.38251158595085144 0.7274823188781738 
v 0.7068888545036316 0.7068888545036316 0.6840223073959351 
v 0.15779240429401398 0.15779240429401398 0.040554583072662354 
v 0.0004889600095339119 -0.0004880799970123917 -0.16636699438095093 
v -0.3825107216835022 0.923791766166687 0.7274823188781738 
v 0.0004889600095339119 0.22227704524993896 0.040554583072662354 
v 0.0004889600095339119 -0.0004880799970123917 -0.16636699438095093 
v 0.38251158595085144 0.923791766166687 0.7274823188781738 
v 0.0004889600095339119 0.22227704524993896 0.040554583072662354 
v 0.0004889600095339119 -0.0004880799970123917 -0.16636699438095093 
v 0.38251158595085144 0.923791766166687 0.7274823188781738 
v 0.15779240429401398 0.15779240429401398 0.040554583072662354 
v 0.0004889600095339119 -0.0004880799970123917 -0.16636699438095093 
v 0.22227704524993896 0.0004889600095339119 0.040554583072662354 
v 0.923791766166687 0.38251158595085144 0.7274823188781738 
v 0.0004889600095339119 -0.0004880799970123917 -0.16636699438095093 
v 0.923791766166687 -0.3825107216835022 0.7274823188781738 
v 0.15779240429401398 -0.15779152512550354 0.040554583072662354 
v 0.0004889600095339119 -0.0004880799970123917 -0.16636699438095093 
v -0.3825107216835022 -0.9237908720970154 0.7274823188781738 
v 0.0004889600095339119 -0.22227616608142853 0.040554583072662354 
v 0.0004889600095339119 -0.0004880799970123917 -0.16636699438095093 
v -0.3825107216835022 -0.9237908720970154 0.7274823188781738 
v -0.15779152512550354 -0.15779152512550354 0.040554583072662354 
v 0.0004889600095339119 -0.0004880799970123917 -0.16636699438095093 
v -0.9237908720970154 -0.3825107216835022 0.7274823188781738 
v -0.15779152512550354 -0.15779152512550354 0.040554583072662354 
v 0.0004889600095339119 -0.0004880799970123917 -0.16636699438095093 
v -0.9237908720970154 -0.3825107216835022 0.7274823188781738 
v -0.22227616608142853 0.0004889600095339119 0.040554583072662354 
v 0.0004889600095339119 -0.0004880799970123917 -0.16636699438095093 
v -0.9237908720970154 0.38251158595085144 0.7274823188781738 
v -0.22227616608142853 0.0004889600095339119 0.040554583072662354 
v 0.0004889600095339119 -0.0004880799970123917 -0.16636699438095093 
v -0.9237908720970154 0.38251158595085144 0.7274823188781738 
v -0.15779152512550354 0.15779240429401398 0.040554583072662354 
v 0.0004889600095339119 -0.0004880799970123917 -0.16636699438095093 
v -0.3825107216835022 0.923791766166687 0.7274823188781738 
v -0.15779152512550354 0.15779240429401398 0.040554583072662354 
v 0.0004889600095339119 -0.0004880799970123917 -0.16636699438095093 
v 0.15779240429401398 0.15779240429401398 0.040554583072662354 
v 0.923791766166687 0.38251158595085144 0.7274823188781738 
v 0.0004889600095339119 -0.0004880799970123917 -0.16636699438095093 
v 0.923791766166687 -0.3825107216835022 0.7274823188781738 
v 0.22227704524993896 0.0004889600095339119 0.040554583072662354 
v 0.0004889600095339119 -0.0004880799970123917 -0.16636699438095093 
v 0.15779240429401398 -0.15779152512550354 0.040554583072662354 
v 0.38251158595085144 -0.9237908720970154 0.7274823188781738 
v 0.0004889600095339119 -0.0004880799970123917 -0.16636699438095093 
v 0.0004889600095339119 -0.22227616608142853 0.040554583072662354 
v 0.38251158595085144 -0.9237908720970154 0.7274823188781738 
v 0.0004889600095339119 1.0000008344650269 0.8098617792129517 
v 0.38251158595085144 0.923791766166687 0.7651044726371765 
v 0.0004889600095339119 1.0000008344650269 0.6840223073959351 
v 0.38251158595085144 0.923791766166687 0.7274823188781738 
v 0.38251158595085144 0.923791766166687 0.7651044726371765 
v 0.7068888545036316 0.7068888545036316 0.8098617792129517 
v 0.38251158595085144 0.923791766166687 0.7274823188781738 
v 0.7068888545036316 0.7068888545036316 0.6840223073959351 
v 0.7068888545036316 0.7068888545036316 0.8098617792129517 
v 0.923791766166687 0.38251158595085144 0.7651044726371765 
v 0.7068888545036316 0.7068888545036316 0.6840223073959351 
v 0.923791766166687 0.38251158595085144 0.7274823188781738 
v 0.923791766166687 0.38251158595085144 0.7651044726371765 
v 1.0000008344650269 -0.0004880799970123917 0.8098617792129517 
v 0.923791766166687 0.38251158595085144 0.7274823188781738 
v 1.0000008344650269 -0.0004880799970123917 0.6840223073959351 
v 1.0000008344650269 -0.0004880799970123917 0.8098617792129517 
v 0.923791766166687 -0.3825107216835022 0.7651044726371765 
v 1.0000008344650269 -0.0004880799970123917 0.6840223073959351 
v 0.923791766166687 -0.3825107216835022 0.7274823188781738 
v 0.923791766166687 -0.3825107216835022 0.7651044726371765 
v 0.7068888545036316 -0.7068880200386047 0.8098617792129517 
v 0.923791766166687 -0.3825107216835022 0.7274823188781738 
v 0.7068888545036316 -0.7068880200386047 0.6840223073959351 
v 0.7068888545036316 -0.7068880200386047 0.8098617792129517 
v 0.38251158595085144 -0.9237908720970154 0.7651044726371765 
v 0.7068888545036316 -0.7068880200386047 0.6840223073959351 
v 0.38251158595085144 -0.9237908720970154 0.7274823188781738 
v 0.38251158595085144 -0.9237908720970154 0.7651044726371765 
v 0.0004889600095339119 -1 0.8098617792129517 
v 0.38251158595085144 -0.9237908720970154 0.7274823188781738 
v 0.0004889600095339119 -1 0.6840223073959351 
v 0.0004889600095339119 -1 0.8098617792129517 
v -0.3825107216835022 -0.9237908720970154 0.7651044726371765 
v 0.0004889600095339119 -1 0.6840223073959351 
v -0.3825107216835022 -0.9237908720970154 0.7274823188781738 
v -0.3825107216835022 -0.9237908720970154 0.7651044726371765 
v -0.7068880200386047 -0.7068880200386047 0.8098617792129517 
v -0.3825107216835022 -0.9237908720970154 0.7274823188781738 
v -0.7068880200386047 -0.7068880200386047 0.6840223073959351 
v -0.7068880200386047 -0.7068880200386047 0.8098617792129517 
v -0.9237908720970154 -0.3825107216835022 0.7651044726371765 
v -0.7068880200386047 -0.7068880200386047 0.6840223073959351 
v -0.9237908720970154 -0.3825107216835022 0.7274823188781738 
v -0.9237908720970154 -0.3825107216835022 0.7651044726371765 
v -1 0.0004889600095339119 0.8098617792129517 
v -0.9237908720970154 -0.3825107216835022 0.7274823188781738 
v -1 0.0004889600095339119 0.6840223073959351 
v -1 0.0004889600095339119 0.8098617792129517 
v -0.9237908720970154 0.38251158595085144 0.7651044726371765 
v -1 0.0004889600095339119 0.6840223073959351 
v -0.9237908720970154 0.38251158595085144 0.7274823188781738 
v -0.9237908720970154 0.38251158595085144 0.7651044726371765 
v -0.7068880200386047 0.7068888545036316 0.8098617792129517 
v -0.9237908720970154 0.38251158595085144 0.7274823188781738 
v -0.7068880200386047 0.7068888545036316 0.6840223073959351 
v -0.7068880200386047 0.7068888545036316 0.8098617792129517 
v -0.3825107216835022 0.923791766166687 0.7651044726371765 
v -0.7068880200386047 0.7068888545036316 0.6840223073959351 
v -0.3825107216835022 0.923791766166687 0.7274823188781738 
v -0.3825107216835022 0.923791766166687 0.7651044726371765 
v 0.0004889600095339119 1.0000008344650269 0.8098617792129517 
v -0.3825107216835022 0.923791766166687 0.7274823188781738 
v 0.0004889600095339119 1.0000008344650269 0.6840223073959351 
v 0.5964833498001099 0.0004889600095339119 1.1614339351654053 
v 0.7205674648284912 -0.29848527908325195 0.9999182820320129 
v 0.7205674648284912 0.2984861731529236 0.9999182820320129 
v 1.0000008344650269 -0.0004880799970123917 0.8098617792129517 
v 0.0004889600095339119 0.5964833498001099 1.1614339351654053 
v 0.2984861731529236 0.7205674648284912 0.9999182820320129 
v -0.29848527908325195 0.7205674648284912 0.9999182820320129 
v 0.0004889600095339119 1.0000008344650269 0.8098617792129517 
v -1 0.0004889600095339119 0.8098617792129517 
v -0.7205665707588196 -0.29848527908325195 0.9999182820320129 
v -0.7205665707588196 0.2984861731529236 0.9999182820320129 
v -0.5964824557304382 -0.0004880799970123917 1.1614339351654053 
v -0.4215923249721527 0.42159318923950195 1.1614339351654053 
v -0.29848527908325195 0.7205674648284912 0.9999182820320129 
v -0.7205665707588196 0.2984861731529236 0.9999182820320129 
v -0.7068880200386047 0.7068888545036316 0.8098617792129517 
v 0.0004889600095339119 -1 0.8098617792129517 
v 0.2984861731529236 -0.7205665707588196 0.9999182820320129 
v -0.29848527908325195 -0.7205665707588196 0.9999182820320129 
v -0.0004880799970123917 -0.5964824557304382 1.1614339351654053 
v 0.42159318923950195 -0.4215923249721527 1.1614339351654053 
v 0.2984861731529236 -0.7205665707588196 0.9999182820320129 
v 0.7205674648284912 -0.29848527908325195 0.9999182820320129 
v 0.7068888545036316 -0.7068880200386047 0.8098617792129517 
v 0.42159318923950195 0.42159318923950195 1.1614339351654053 
v 0.7205674648284912 0.2984861731529236 0.9999182820320129 
v 0.2984861731529236 0.7205674648284912 0.9999182820320129 
v 0.7068888545036316 0.7068888545036316 0.8098617792129517 
v -0.7205665707588196 -0.29848527908325195 0.9999182820320129 
v -0.7068880200386047 -0.7068880200386047 0.8098617792129517 
v -0.4215923249721527 -0.4215923249721527 1.1614339351654053 
v -0.29848527908325195 -0.7205665707588196 0.9999182820320129 
v 0.0004889600095339119 0.22227704524993896 0.040554583072662354 
v -0.3825107216835022 0.923791766166687 0.7274823188781738 
v 0.0004889600095339119 1.0000008344650269 0.6840223073959351 
v -0.3825107216835022 0.923791766166687 0.7274823188781738 
v -0.7068880200386047 0.7068888545036316 0.6840223073959351 
v -0.15779152512550354 0.15779240429401398 0.040554583072662354 
v -0.15779152512550354 0.15779240429401398 0.040554583072662354 
v -0.9237908720970154 0.38251158595085144 0.7274823188781738 
v -0.7068880200386047 0.7068888545036316 0.6840223073959351 
v -0.9237908720970154 0.38251158595085144 0.7274823188781738 
v -1 0.0004889600095339119 0.6840223073959351 
v -0.22227616608142853 0.0004889600095339119 0.040554583072662354 
v -0.22227616608142853 0.0004889600095339119 0.040554583072662354 
v -0.9237908720970154 -0.3825107216835022 0.7274823188781738 
v -1 0.0004889600095339119 0.6840223073959351 
v -0.9237908720970154 -0.3825107216835022 0.7274823188781738 
v -0.7068880200386047 -0.7068880200386047 0.6840223073959351 
v -0.15779152512550354 -0.15779152512550354 0.040554583072662354 
v -0.15779152512550354 -0.15779152512550354 0.040554583072662354 
v -0.3825107216835022 -0.9237908720970154 0.7274823188781738 
v -0.7068880200386047 -0.7068880200386047 0.6840223073959351 
v -0.3825107216835022 -0.9237908720970154 0.7274823188781738 
v 0.0004889600095339119 -1 0.6840223073959351 
v 0.0004889600095339119 -0.22227616608142853 0.040554583072662354 
v 0.15779240429401398 0.15779240429401398 0.040554583072662354 
v 0.38251158595085144 0.923791766166687 0.7274823188781738 
v 0.7068888545036316 0.7068888545036316 0.6840223073959351 
v 0.38251158595085144 0.923791766166687 0.7274823188781738 
v 0.0004889600095339119 1.0000008344650269 0.6840223073959351 
v 0.0004889600095339119 0.22227704524993896 0.040554583072662354 
v -0.5964824557304382 -0.0004880799970123917 1.1614339351654053 
v -0.4215923249721527 -0.4215923249721527 1.1614339351654053 
v -0.4215923249721527 0.42159318923950195 1.1614339351654053 
v -0.0004880799970123917 -0.5964824557304382 1.1614339351654053 
v 0.0004889600095339119 0.5964833498001099 1.1614339351654053 
v 0.42159318923950195 -0.4215923249721527 1.1614339351654053 
v 0.42159318923950195 0.42159318923950195 1.1614339351654053 
v 0.5964833498001099 0.0004889600095339119 1.1614339351654053 
v -0.3825107216835022 0.923791766166687 0.7274823188781738 
v -0.3825107216835022 0.923791766166687 0.7274823188781738 
v -0.9237908720970154 0.38251158595085144 0.7274823188781738 
v -0.9237908720970154 0.38251158595085144 0.7274823188781738 
v -0.9237908720970154 -0.3825107216835022 0.7274823188781738 
v -0.9237908720970154 -0.3825107216835022 0.7274823188781738 
v -0.3825107216835022 -0.9237908720970154 0.7274823188781738 
v -0.3825107216835022 -0.9237908720970154 0.7274823188781738 
v 0.38251158595085144 0.923791766166687 0.7274823188781738 
v 0.38251158595085144 0.923791766166687 0.7274823188781738 
vn -0.22373826801776886 -0.5327706933021545 0.8161473870277405 
vn -0.22373826801776886 -0.5327706933021545 0.8161473870277405 
vn -0.22373826801776886 -0.5327706933021545 0.8161473870277405 
vn 0.3374101221561432 0.6497465968132019 0.681163489818573 
vn 0.3374101221561432 0.6497465968132019 0.681163489818573 
vn 0.3374101221561432 0.6497465968132019 0.681163489818573 
vn 0.6974542140960693 0.22265198826789856 0.681163489818573 
vn 0.6974542140960693 0.22265198826789856 0.681163489818573 
vn 0.6974542140960693 0.22265198826789856 0.681163489818573 
vn 0.5342176556587219 0.22026103734970093 0.8161473870277405 
vn 0.5342176556587219 0.22026103734970093 0.8161473870277405 
vn 0.5342176556587219 0.22026103734970093 0.8161473870277405 
vn 0.6480002999305725 -0.34075191617012024 0.681163489818573 
vn 0.6480002999305725 -0.34075191617012024 0.681163489818573 
vn 0.6480002999305725 -0.34075191617012024 0.681163489818573 
vn 0.21905705332756042 -0.6985916495323181 0.681163489818573 
vn 0.21905705332756042 -0.6985916495323181 0.681163489818573 
vn 0.21905705332756042 -0.6985916495323181 0.681163489818573 
vn -0.22373826801776886 0.5327706933021545 0.8161473870277405 
vn -0.22373826801776886 0.5327706933021545 0.8161473870277405 
vn -0.22373826801776886 0.5327706933021545 0.8161473870277405 
vn -0.5342176556587219 -0.22026103734970093 0.8161473870277405 
vn -0.5342176556587219 -0.22026103734970093 0.8161473870277405 
vn -0.5342176556587219 -0.22026103734970093 0.8161473870277405 
vn -0.5342176556587219 0.22026103734970093 0.8161473870277405 
vn -0.5342176556587219 0.22026103734970093 0.8161473870277405 
vn -0.5342176556587219 0.22026103734970093 0.8161473870277405 
vn 0.22373826801776886 -0.5327706933021545 0.8161473870277405 
vn 0.22373826801776886 -0.5327706933021545 0.8161473870277405 
vn 0.22373826801776886 -0.5327706933021545 0.8161473870277405 
vn -0.21905705332756042 -0.6985916495323181 0.681163489818573 
vn -0.21905705332756042 -0.6985916495323181 0.681163489818573 
vn -0.21905705332756042 -0.6985916495323181 0.681163489818573 
vn -0.6480002999305725 -0.34075191617012024 0.681163489818573 
vn -0.6480002999305725 -0.34075191617012024 0.681163489818573 
vn -0.6480002999305725 -0.34075191617012024 0.681163489818573 
vn -0.6974542140960693 0.22265198826789856 0.681163489818573 
vn -0.6974542140960693 0.22265198826789856 0.681163489818573 
vn -0.6974542140960693 0.22265198826789856 0.681163489818573 
vn -0.3374101221561432 0.6497465968132019 0.681163489818573 
vn -0.3374101221561432 0.6497465968132019 0.681163489818573 
vn -0.3374101221561432 0.6497465968132019 0.681163489818573 
vn 0.5342176556587219 -0.22026103734970093 0.8161473870277405 
vn 0.5342176556587219 -0.22026103734970093 0.8161473870277405 
vn 0.5342176556587219 -0.22026103734970093 0.8161473870277405 
vn 0.22373826801776886 0.5327706933021545 0.8161473870277405 
vn 0.22373826801776886 0.5327706933021545 0.8161473870277405 
vn 0.22373826801776886 0.5327706933021545 0.8161473870277405 
vn -0.3374101221561432 -0.6497465968132019 0.681163489818573 
vn -0.3374101221561432 -0.6497465968132019 0.681163489818573 
vn -0.3374101221561432 -0.6497465968132019 0.681163489818573 
vn -0.6974542140960693 -0.22265198826789856 0.681163489818573 
vn -0.6974542140960693 -0.22265198826789856 0.681163489818573 
vn -0.6974542140960693 -0.22265198826789856 0.681163489818573 
vn -0.6480002999305725 0.34075191617012024 0.681163489818573 
vn -0.6480002999305725 0.34075191617012024 0.681163489818573 
vn -0.6480002999305725 0.34075191617012024 0.681163489818573 
vn -0.21905705332756042 0.6985916495323181 0.681163489818573 
vn -0.21905705332756042 0.6985916495323181 0.681163489818573 
vn -0.21905705332756042 0.6985916495323181 0.681163489818573 
vn 0.21905705332756042 0.6985916495323181 0.681163489818573 
vn 0.21905705332756042 0.6985916495323181 0.681163489818573 
vn 0.21905705332756042 0.6985916495323181 0.681163489818573 
vn 0.6480002999305725 0.34075191617012024 0.681163489818573 
vn 0.6480002999305725 0.34075191617012024 0.681163489818573 
vn 0.6480002999305725 0.34075191617012024 0.681163489818573 
vn 0.6974542140960693 -0.22265198826789856 0.681163489818573 
vn 0.6974542140960693 -0.22265198826789856 0.681163489818573 
vn 0.6974542140960693 -0.22265198826789856 0.681163489818573 
vn 0.3374101221561432 -0.6497465968132019 0.681163489818573 
vn 0.3374101221561432 -0.6497465968132019 0.681163489818573 
vn 0.3374101221561432 -0.6497465968132019 0.681163489818573 
vn 0.21157187223434448 -0.6218010187149048 -0.7540562748908997 
vn 0.21157187223434448 -0.6218010187149048 -0.7540562748908997 
vn 0.21157187223434448 -0.6218010187149048 -0.7540562748908997 
vn 0.29515090584754944 -0.5867581367492676 -0.7540562748908997 
vn 0.29515090584754944 -0.5867581367492676 -0.7540562748908997 
vn 0.29515090584754944 -0.5867581367492676 -0.7540562748908997 
vn 0.5884466767311096 -0.29176992177963257 -0.7540562748908997 
vn 0.5884466767311096 -0.29176992177963257 -0.7540562748908997 
vn 0.5884466767311096 -0.29176992177963257 -0.7540562748908997 
vn 0.6230080723762512 -0.2079906463623047 -0.7540562748908997 
vn 0.6230080723762512 -0.2079906463623047 -0.7540562748908997 
vn 0.6230080723762512 -0.2079906463623047 -0.7540562748908997 
vn 0.6230080723762512 0.2079906463623047 -0.7540562748908997 
vn 0.6230080723762512 0.2079906463623047 -0.7540562748908997 
vn 0.6230080723762512 0.2079906463623047 -0.7540562748908997 
vn 0.5884466767311096 0.29176992177963257 -0.7540562748908997 
vn 0.5884466767311096 0.29176992177963257 -0.7540562748908997 
vn 0.5884466767311096 0.29176992177963257 -0.7540562748908997 
vn -0.06786178797483444 0.679380476474762 -0.7306414246559143 
vn -0.06786178797483444 0.679380476474762 -0.7306414246559143 
vn -0.06786178797483444 0.679380476474762 -0.7306414246559143 
vn 0.06786178797483444 0.679380476474762 -0.7306414246559143 
vn 0.06786178797483444 0.679380476474762 -0.7306414246559143 
vn 0.06786178797483444 0.679380476474762 -0.7306414246559143 
vn 0.43240901827812195 0.5283800959587097 -0.7306414246559143 
vn 0.43240901827812195 0.5283800959587097 -0.7306414246559143 
vn 0.43240901827812195 0.5283800959587097 -0.7306414246559143 
vn 0.679380476474762 0.06786178797483444 -0.7306414246559143 
vn 0.679380476474762 0.06786178797483444 -0.7306414246559143 
vn 0.679380476474762 0.06786178797483444 -0.7306414246559143 
vn 0.5283800959587097 -0.43240901827812195 -0.7306414246559143 
vn 0.5283800959587097 -0.43240901827812195 -0.7306414246559143 
vn 0.5283800959587097 -0.43240901827812195 -0.7306414246559143 
vn -0.06786178797483444 -0.679380476474762 -0.7306414246559143 
vn -0.06786178797483444 -0.679380476474762 -0.7306414246559143 
vn -0.06786178797483444 -0.679380476474762 -0.7306414246559143 
vn -0.43240901827812195 -0.5283800959587097 -0.7306414246559143 
vn -0.43240901827812195 -0.5283800959587097 -0.7306414246559143 
vn -0.43240901827812195 -0.5283800959587097 -0.7306414246559143 
vn -0.5283800959587097 -0.43240901827812195 -0.7306414246559143 
vn -0.5283800959587097 -0.43240901827812195 -0.7306414246559143 
vn -0.5283800959587097 -0.43240901827812195 -0.7306414246559143 
vn -0.679380476474762 -0.06786178797483444 -0.7306414246559143 
vn -0.679380476474762 -0.06786178797483444 -0.7306414246559143 
vn -0.679380476474762 -0.06786178797483444 -0.7306414246559143 
vn -0.679380476474762 0.06786178797483444 -0.7306414246559143 
vn -0.679380476474762 0.06786178797483444 -0.7306414246559143 
vn -0.679380476474762 0.06786178797483444 -0.7306414246559143 
vn -0.5283800959587097 0.43240901827812195 -0.7306414246559143 
vn -0.5283800959587097 0.43240901827812195 -0.7306414246559143 
vn -0.5283800959587097 0.43240901827812195 -0.7306414246559143 
vn -0.43240901827812195 0.5283800959587097 -0.7306414246559143 
vn -0.43240901827812195 0.5283800959587097 -0.7306414246559143 
vn -0.43240901827812195 0.5283800959587097 -0.7306414246559143 
vn 0.5283800959587097 0.43240901827812195 -0.7306414246559143 
vn 0.5283800959587097 0.43240901827812195 -0.7306414246559143 
vn 0.5283800959587097 0.43240901827812195 -0.7306414246559143 
vn 0.679380476474762 -0.06786178797483444 -0.7306414246559143 
vn 0.679380476474762 -0.06786178797483444 -0.7306414246559143 
vn 0.679380476474762 -0.06786178797483444 -0.7306414246559143 
vn 0.43240901827812195 -0.5283800959587097 -0.7306414246559143 
vn 0.43240901827812195 -0.5283800959587097 -0.7306414246559143 
vn 0.43240901827812195 -0.5283800959587097 -0.7306414246559143 
vn 0.06786178797483444 -0.679380476474762 -0.7306414246559143 
vn 0.06786178797483444 -0.679380476474762 -0.7306414246559143 
vn 0.06786178797483444 -0.679380476474762 -0.7306414246559143 
vn 0.19508986175060272 0.9807829260826111 0.002184694167226553 
vn 0.19508986175060272 0.9807829260826111 0.002184694167226553 
vn 0.19508986175060272 0.9807829260826111 0.002184694167226553 
vn 0.19508986175060272 0.9807829260826111 0.002184694167226553 
vn 0.5555689334869385 0.8314676284790039 0.002184694167226553 
vn 0.5555689334869385 0.8314676284790039 0.002184694167226553 
vn 0.5555689334869385 0.8314676284790039 0.002184694167226553 
vn 0.5555689334869385 0.8314676284790039 0.002184694167226553 
vn 0.8314676284790039 0.5555689334869385 0.002184694167226553 
vn 0.8314676284790039 0.5555689334869385 0.002184694167226553 
vn 0.8314676284790039 0.5555689334869385 0.002184694167226553 
vn 0.8314676284790039 0.5555689334869385 0.002184694167226553 
vn 0.9807829260826111 0.19508986175060272 0.002184694167226553 
vn 0.9807829260826111 0.19508986175060272 0.002184694167226553 
vn 0.9807829260826111 0.19508986175060272 0.002184694167226553 
vn 0.9807829260826111 0.19508986175060272 0.002184694167226553 
vn 0.9807829260826111 -0.19508986175060272 0.002184694167226553 
vn 0.9807829260826111 -0.19508986175060272 0.002184694167226553 
vn 0.9807829260826111 -0.19508986175060272 0.002184694167226553 
vn 0.9807829260826111 -0.19508986175060272 0.002184694167226553 
vn 0.8314676284790039 -0.5555689334869385 0.002184694167226553 
vn 0.8314676284790039 -0.5555689334869385 0.002184694167226553 
vn 0.8314676284790039 -0.5555689334869385 0.002184694167226553 
vn 0.8314676284790039 -0.5555689334869385 0.002184694167226553 
vn 0.5555689334869385 -0.8314676284790039 0.002184694167226553 
vn 0.5555689334869385 -0.8314676284790039 0.002184694167226553 
vn 0.5555689334869385 -0.8314676284790039 0.002184694167226553 
vn 0.5555689334869385 -0.8314676284790039 0.002184694167226553 
vn 0.19508986175060272 -0.9807829260826111 0.002184694167226553 
vn 0.19508986175060272 -0.9807829260826111 0.002184694167226553 
vn 0.19508986175060272 -0.9807829260826111 0.002184694167226553 
vn 0.19508986175060272 -0.9807829260826111 0.002184694167226553 
vn -0.19508986175060272 -0.9807829260826111 0.002184694167226553 
vn -0.19508986175060272 -0.9807829260826111 0.002184694167226553 
vn -0.19508986175060272 -0.9807829260826111 0.002184694167226553 
vn -0.19508986175060272 -0.9807829260826111 0.002184694167226553 
vn -0.5555689334869385 -0.8314676284790039 0.002184694167226553 
vn -0.5555689334869385 -0.8314676284790039 0.002184694167226553 
vn -0.5555689334869385 -0.8314676284790039 0.002184694167226553 
vn -0.5555689334869385 -0.8314676284790039 0.002184694167226553 
vn -0.8314676284790039 -0.5555689334869385 0.002184694167226553 
vn -0.8314676284790039 -0.5555689334869385 0.002184694167226553 
vn -0.8314676284790039 -0.5555689334869385 0.002184694167226553 
vn -0.8314676284790039 -0.5555689334869385 0.002184694167226553 
vn -0.9807829260826111 -0.19508986175060272 -0.002184694167226553 
vn -0.9807829260826111 -0.19508986175060272 -0.002184694167226553 
vn -0.9807829260826111 -0.19508986175060272 -0.002184694167226553 
vn -0.9807829260826111 -0.19508986175060272 -0.002184694167226553 
vn -0.9807829260826111 0.19508986175060272 -0.002184694167226553 
vn -0.9807829260826111 0.19508986175060272 -0.002184694167226553 
vn -0.9807829260826111 0.19508986175060272 -0.002184694167226553 
vn -0.9807829260826111 0.19508986175060272 -0.002184694167226553 
vn -0.8314676284790039 0.5555689334869385 0.002184694167226553 
vn -0.8314676284790039 0.5555689334869385 0.002184694167226553 
vn -0.8314676284790039 0.5555689334869385 0.002184694167226553 
vn -0.8314676284790039 0.5555689334869385 0.002184694167226553 
vn -0.5555689334869385 0.8314676284790039 0.002184694167226553 
vn -0.5555689334869385 0.8314676284790039 0.002184694167226553 
vn -0.5555689334869385 0.8314676284790039 0.002184694167226553 
vn -0.5555689334869385 0.8314676284790039 0.002184694167226553 
vn -0.19508986175060272 0.9807829260826111 0.002184694167226553 
vn -0.19508986175060272 0.9807829260826111 0.002184694167226553 
vn -0.19508986175060272 0.9807829260826111 0.002184694167226553 
vn -0.19508986175060272 0.9807829260826111 0.002184694167226553 
vn 0.6568098068237305 0 0.7540562748908997 
vn 0.6568098068237305 0 0.7540562748908997 
vn 0.6568098068237305 0 0.7540562748908997 
vn 0.6568098068237305 0 0.7540562748908997 
vn -0.0018861298449337482 0.6568071246147156 0.7540562748908997 
vn -0.0018861298449337482 0.6568071246147156 0.7540562748908997 
vn -0.0018861298449337482 0.6568071246147156 0.7540562748908997 
vn -0.0018861298449337482 0.6568071246147156 0.7540562748908997 
vn -0.6567990183830261 0.0037722443230450153 0.7540562748908997 
vn -0.6567990183830261 0.0037722443230450153 0.7540562748908997 
vn -0.6567990183830261 0.0037722443230450153 0.7540562748908997 
vn -0.6567990183830261 0.0037722443230450153 0.7540562748908997 
vn -0.4637673497200012 0.46510106325149536 0.7540562748908997 
vn -0.4637673497200012 0.46510106325149536 0.7540562748908997 
vn -0.4637673497200012 0.46510106325149536 0.7540562748908997 
vn -0.4637673497200012 0.46510106325149536 0.7540562748908997 
vn -0.0018861298449337482 -0.6568071246147156 0.7540562748908997 
vn -0.0018861298449337482 -0.6568071246147156 0.7540562748908997 
vn -0.0018861298449337482 -0.6568071246147156 0.7540562748908997 
vn -0.0018861298449337482 -0.6568071246147156 0.7540562748908997 
vn 0.4664309024810791 -0.46242982149124146 0.7540562748908997 
vn 0.4664309024810791 -0.46242982149124146 0.7540562748908997 
vn 0.4664309024810791 -0.46242982149124146 0.7540562748908997 
vn 0.4664309024810791 -0.46242982149124146 0.7540562748908997 
vn 0.4664309024810791 0.46242982149124146 0.7540562748908997 
vn 0.4664309024810791 0.46242982149124146 0.7540562748908997 
vn 0.4664309024810791 0.46242982149124146 0.7540562748908997 
vn 0.4664309024810791 0.46242982149124146 0.7540562748908997 
vn -0.4637673497200012 -0.46510106325149536 0.7540562748908997 
vn -0.4637673497200012 -0.46510106325149536 0.7540562748908997 
vn -0.4637673497200012 -0.46510106325149536 0.7540562748908997 
vn -0.4637673497200012 -0.46510106325149536 0.7540562748908997 
vn -0.21157187223434448 0.6218010187149048 -0.7540562748908997 
vn -0.21157187223434448 0.6218010187149048 -0.7540562748908997 
vn -0.21157187223434448 0.6218010187149048 -0.7540562748908997 
vn -0.29515090584754944 0.5867581367492676 -0.7540562748908997 
vn -0.29515090584754944 0.5867581367492676 -0.7540562748908997 
vn -0.29515090584754944 0.5867581367492676 -0.7540562748908997 
vn -0.5884466767311096 0.29176992177963257 -0.7540562748908997 
vn -0.5884466767311096 0.29176992177963257 -0.7540562748908997 
vn -0.5884466767311096 0.29176992177963257 -0.7540562748908997 
vn -0.6230080723762512 0.2079906463623047 -0.7540562748908997 
vn -0.6230080723762512 0.2079906463623047 -0.7540562748908997 
vn -0.6230080723762512 0.2079906463623047 -0.7540562748908997 
vn -0.6230080723762512 -0.2079906463623047 -0.7540562748908997 
vn -0.6230080723762512 -0.2079906463623047 -0.7540562748908997 
vn -0.6230080723762512 -0.2079906463623047 -0.7540562748908997 
vn -0.5884466767311096 -0.29176992177963257 -0.7540562748908997 
vn -0.5884466767311096 -0.29176992177963257 -0.7540562748908997 
vn -0.5884466767311096 -0.29176992177963257 -0.7540562748908997 
vn -0.29515090584754944 -0.5867581367492676 -0.7540562748908997 
vn -0.29515090584754944 -0.5867581367492676 -0.7540562748908997 
vn -0.29515090584754944 -0.5867581367492676 -0.7540562748908997 
vn -0.21157187223434448 -0.6218010187149048 -0.7540562748908997 
vn -0.21157187223434448 -0.6218010187149048 -0.7540562748908997 
vn -0.21157187223434448 -0.6218010187149048 -0.7540562748908997 
vn 0.29515090584754944 0.5867581367492676 -0.7540562748908997 
vn 0.29515090584754944 0.5867581367492676 -0.7540562748908997 
vn 0.29515090584754944 0.5867581367492676 -0.7540562748908997 
vn 0.21157187223434448 0.6218010187149048 -0.7540562748908997 
vn 0.21157187223434448 0.6218010187149048 -0.7540562748908997 
vn 0.21157187223434448 0.6218010187149048 -0.7540562748908997 
vn 0 0 1 
vn 0 0 1 
vn 0 0 1 
vn 0 0 1 
vn 0 0 1 
vn 0 0 1 
vn 0 0 1 
vn 0 0 1 
vn -0.21157187223434448 0.6218010187149048 -0.7540562748908997 
vn -0.29515090584754944 0.5867581367492676 -0.7540562748908997 
vn -0.5884466767311096 0.29176992177963257 -0.7540562748908997 
vn -0.6230080723762512 0.2079906463623047 -0.7540562748908997 
vn -0.6230080723762512 -0.2079906463623047 -0.7540562748908997 
vn -0.5884466767311096 -0.29176992177963257 -0.7540562748908997 
vn -0.29515090584754944 -0.5867581367492676 -0.7540562748908997 
vn -0.21157187223434448 -0.6218010187149048 -0.7540562748908997 
vn 0.29515090584754944 0.5867581367492676 -0.7540562748908997 
vn 0.21157187223434448 0.6218010187149048 -0.7540562748908997 
vt 0.6733385324478149 0.6165891885757446 
vt 0.6065519452095032 0.6165891885757446 
vt 0.6400004625320435 0.575692892074585 
vt 0.4755178391933441 0.739639937877655 
vt 0.5002454519271851 0.779691755771637 
vt 0.5414212942123413 0.739639937877655 
vt 0.8452172875404358 0.5958394408226013 
vt 0.798080325126648 0.5498763918876648 
vt 0.8553732633590698 0.5498763918876648 
vt 0.5661488771438599 0.6165891885757446 
vt 0.5327003598213196 0.575692892074585 
vt 0.4993623197078705 0.6165891885757446 
vt 0.7474108934402466 0.8648622035980225 
vt 0.6914426684379578 0.8301184773445129 
vt 0.7474108934402466 0.8178133964538574 
vt 0.8704968690872192 0.1652824431657791 
vt 0.8704968690872192 0.11823362112045288 
vt 0.8145285844802856 0.1305387020111084 
vt 0.7242287993431091 0.3680749237537384 
vt 0.7760021686553955 0.4101775884628296 
vt 0.7242287993431091 0.42079371213912964 
vt 0.7747878432273865 0.4620519280433655 
vt 0.732618510723114 0.5136849880218506 
vt 0.7853853702545166 0.5136849880218506 
vt 0.7043583989143372 0.5594068169593811 
vt 0.7560213804244995 0.6016300916671753 
vt 0.7043583989143372 0.6122462153434753 
vt 0.7473005056381226 0.023653430864214897 
vt 0.7989634871482849 0.06587672978639603 
vt 0.7989634871482849 0.013037285767495632 
vt 0.3166652023792267 0.8057495951652527 
vt 0.2694178521633148 0.8517126441001892 
vt 0.2592618763446808 0.8057495951652527 
vt 0.7709241509437561 0.7523069381713867 
vt 0.7709241509437561 0.8096100091934204 
vt 0.8168468475341797 0.7994763851165771 
vt 0.3602696359157562 0.8473696708679199 
vt 0.41634827852249146 0.8127465844154358 
vt 0.41634827852249146 0.8597953915596008 
vt 0.7813009023666382 0.6463868021965027 
vt 0.7813009023666382 0.703810453414917 
vt 0.8273339867591858 0.6935562491416931 
vt 0.7756710052490234 0.3192165195941925 
vt 0.7333912253379822 0.267462819814682 
vt 0.7861581444740295 0.267462819814682 
vt 0.12546798586845398 0.7179251313209534 
vt 0.15891645848751068 0.758821427822113 
vt 0.19225454330444336 0.7179251313209534 
vt 0.5407589077949524 0.8208293318748474 
vt 0.59683758020401 0.8084036111831665 
vt 0.59683758020401 0.8554524183273315 
vt 0.7401250600814819 0.7957366108894348 
vt 0.6928777098655701 0.7497735619544983 
vt 0.682721734046936 0.7957366108894348 
vt 0.32958096265792847 0.739639937877655 
vt 0.28851550817489624 0.779691755771637 
vt 0.2636775076389313 0.739639937877655 
vt 0.7833983302116394 0.19013386964797974 
vt 0.7833983302116394 0.12426552176475525 
vt 0.7433264255523682 0.14899630844593048 
vt 0.12635111808776855 0.8400107622146606 
vt 0.17359846830368042 0.7940477132797241 
vt 0.18375444412231445 0.8400107622146606 
vt 0.4355563223361969 0.7875332236289978 
vt 0.39438045024871826 0.7474814057350159 
vt 0.3696528673171997 0.7875332236289978 
vt 0.49571940302848816 0.8208293318748474 
vt 0.43964076042175293 0.8554524183273315 
vt 0.43964076042175293 0.8084036111831665 
vt 0.6472862362861633 0.7875332236289978 
vt 0.6061103940010071 0.7474814057350159 
vt 0.5813828110694885 0.7875332236289978 
vt 0.4216470420360565 0.37458938360214233 
vt 0.2747166156768799 0.42031118273735046 
vt 0.2747166156768799 0.3630081117153168 
vt 0.034064240753650665 0.35637304186820984 
vt 0.05106445401906967 0.4111426770687103 
vt 0.1879492998123169 0.35637304186820984 
vt 0.35684752464294434 0.05731143057346344 
vt 0.4140300750732422 0.20014682412147522 
vt 0.35684752464294434 0.2047310620546341 
vt 0.26809316873550415 0.21124552190303802 
vt 0.3228470981121063 0.19423556327819824 
vt 0.26809316873550415 0.05731143057346344 
vt 0.3026455342769623 0.33695030212402344 
vt 0.4454914927482605 0.2797679007053375 
vt 0.4500175416469574 0.33695030212402344 
vt 0.2113521844148636 0.3335724472999573 
vt 0.19424158334732056 0.2788028120994568 
vt 0.05735674127936363 0.3335724472999573 
vt 0.07303226739168167 0.9816398024559021 
vt 0.2689763009548187 0.9816398024559021 
vt 0.11553280055522919 0.9943068027496338 
vt 0.07303226739168167 0.9103427529335022 
vt 0.2689763009548187 0.9103427529335022 
vt 0.11553280055522919 0.8976757526397705 
vt 0.6968517899513245 0.8969519138336182 
vt 0.8927958011627197 0.8969519138336182 
vt 0.7393523454666138 0.9096189141273499 
vt 0.07303226739168167 0.960045576095581 
vt 0.11553280055522919 0.9727125763893127 
vt 0.2689763009548187 0.960045576095581 
vt 0.38488683104515076 0.9617345333099365 
vt 0.5808308720588684 0.9617345333099365 
vt 0.4274977743625641 0.9744015336036682 
vt 0.9144324660301208 0.9185461401939392 
vt 0.7183780670166016 0.9185461401939392 
vt 0.8718215227127075 0.9312130808830261 
vt 0.29050254821777344 0.8887485265731812 
vt 0.09455850720405579 0.8887485265731812 
vt 0.24800199270248413 0.8760815262794495 
vt 0.9216078519821167 0.2382684350013733 
vt 0.7256638407707214 0.2382684350013733 
vt 0.8789969682693481 0.250935435295105 
vt 0.6096429228782654 0.2534688115119934 
vt 0.41369888186454773 0.2534688115119934 
vt 0.5671423673629761 0.24068118631839752 
vt 0.6024674773216248 0.9401403069496155 
vt 0.4065234661102295 0.9401403069496155 
vt 0.5598565936088562 0.9528073072433472 
vt 0.6024674773216248 0.890558123588562 
vt 0.4065234661102295 0.890558123588562 
vt 0.5598565936088562 0.8777704834938049 
vt 0.07303226739168167 0.9319369196891785 
vt 0.2689763009548187 0.9319369196891785 
vt 0.11553280055522919 0.9192699193954468 
vt 0.38488683104515076 0.9121522903442383 
vt 0.4274977743625641 0.8993646502494812 
vt 0.5808308720588684 0.9121522903442383 
vt 0.07303226739168167 0.9535311460494995 
vt 0.2689763009548187 0.9535311460494995 
vt 0.11553280055522919 0.9408641457557678 
vt 0.8858411908149719 0.21546785533428192 
vt 0.8433406352996826 0.22813484072685242 
vt 0.6898971796035767 0.21546785533428192 
vt 0.6024674773216248 0.9337465167045593 
vt 0.5598565936088562 0.9209588766098022 
vt 0.4065234661102295 0.9337465167045593 
vt 0.8272235989570618 0.0675656646490097 
vt 0.8841853141784668 0.07408011704683304 
vt 0.8272235989570618 0.08602327853441238 
vt 0.8841853141784668 0.07962945848703384 
vt 0.8141974210739136 0.3615604639053345 
vt 0.8712695837020874 0.35492536425590515 
vt 0.8141974210739136 0.3669891655445099 
vt 0.8712695837020874 0.3733829855918884 
vt 0.8601201176643372 0.7485671639442444 
vt 0.8534966111183167 0.8055083155632019 
vt 0.8416848182678223 0.7485671639442444 
vt 0.8479771018028259 0.8055083155632019 
vt 0.8712695837020874 0.3975105881690979 
vt 0.8141974210739136 0.40402504801750183 
vt 0.8712695837020874 0.3919612467288971 
vt 0.8141974210739136 0.38556742668151855 
vt 0.8712695837020874 0.43466711044311523 
vt 0.8141974210739136 0.4281526505947113 
vt 0.8712695837020874 0.41633012890815735 
vt 0.8141974210739136 0.4226033091545105 
vt 0.8728150725364685 0.5205613374710083 
vt 0.8158532977104187 0.5270758271217346 
vt 0.8728150725364685 0.5150120258331299 
vt 0.8158532977104187 0.508618175983429 
vt 0.07435695827007294 0.8396488428115845 
vt 0.017395200207829475 0.8330137729644775 
vt 0.07435695827007294 0.8211912512779236 
vt 0.017395200207829475 0.8275850415229797 
vt 0.8736981749534607 0.2747011184692383 
vt 0.8166260123252869 0.2812155485153198 
vt 0.8736981749534607 0.2691517472267151 
vt 0.8166260123252869 0.26275795698165894 
vt 0.8841853141784668 0.055260587483644485 
vt 0.8272235989570618 0.04862549528479576 
vt 0.8841853141784668 0.036802973598241806 
vt 0.8272235989570618 0.04319678619503975 
vt 0.8728150725364685 0.4897986650466919 
vt 0.8158532977104187 0.4964337646961212 
vt 0.8728150725364685 0.4842493236064911 
vt 0.8158532977104187 0.47797614336013794 
vt 0.21863798797130585 0.7836728096008301 
vt 0.22515106201171875 0.7266110777854919 
vt 0.23707328736782074 0.7836728096008301 
vt 0.23067061603069305 0.7266110777854919 
vt 0.7786515355110168 0.8362709879875183 
vt 0.8356133103370667 0.8297565579414368 
vt 0.7786515355110168 0.8418203592300415 
vt 0.8356133103370667 0.8480935096740723 
vt 0.8272235989570618 0.0061609200201928616 
vt 0.8841853141784668 0.012675371952354908 
vt 0.8272235989570618 0.02461853437125683 
vt 0.8841853141784668 0.018224719911813736 
vt 0.7786515355110168 0.8670336604118347 
vt 0.8356133103370667 0.8603985905647278 
vt 0.7786515355110168 0.8724623918533325 
vt 0.8356133103370667 0.8788562417030334 
vt 0.8158532977104187 0.44733408093452454 
vt 0.8728150725364685 0.45384854078292847 
vt 0.8158532977104187 0.4657917022705078 
vt 0.8728150725364685 0.4593978822231293 
vt 0.8166260123252869 0.30015572905540466 
vt 0.8736981749534607 0.29352062940597534 
vt 0.8166260123252869 0.3055844306945801 
vt 0.8736981749534607 0.3119782507419586 
vt 0.5962855815887451 0.7033278942108154 
vt 0.5829282999038696 0.6522980332374573 
vt 0.6483901739120483 0.7110487818717957 
vt 0.6483901739120483 0.6451804041862488 
vt 0.0701620951294899 0.7369859218597412 
vt 0.08340901881456375 0.7880157828330994 
vt 0.017947154119610786 0.7292650938034058 
vt 0.017947154119610786 0.7951334118843079 
vt 0.2632359564304352 0.7112900018692017 
vt 0.2632359564304352 0.6453010439872742 
vt 0.3288082182407379 0.7040517330169678 
vt 0.31545090675354004 0.6530218720436096 
vt 0.6992803812026978 0.14103420078754425 
vt 0.7070077657699585 0.19314981997013092 
vt 0.6481693983078003 0.1276433914899826 
vt 0.6411043405532837 0.19314981997013092 
vt 0.43787452578544617 0.6451804041862488 
vt 0.43787452578544617 0.7110487818717957 
vt 0.37241265177726746 0.6522980332374573 
vt 0.38576996326446533 0.7033278942108154 
vt 0.7014882564544678 0.7033278942108154 
vt 0.6882413029670715 0.6522980332374573 
vt 0.7537031769752502 0.7110487818717957 
vt 0.7537031769752502 0.6451804041862488 
vt 0.5259665250778198 0.7033278942108154 
vt 0.47375160455703735 0.7110487818717957 
vt 0.5393238663673401 0.6522980332374573 
vt 0.47375160455703735 0.6451804041862488 
vt 0.6391173005104065 0.0857819989323616 
vt 0.6391173005104065 0.019913652911782265 
vt 0.6913322806358337 0.07806117087602615 
vt 0.7045791745185852 0.027031293138861656 
vt 0.5430771708488464 0.5156151652336121 
vt 0.6864750385284424 0.4585534334182739 
vt 0.6900075674057007 0.5156151652336121 
vt 0.210469052195549 0.5091007351875305 
vt 0.2114625722169876 0.45203897356987 
vt 0.06486333161592484 0.46096616983413696 
vt 0.6486109495162964 0.3765195906162262 
vt 0.5019013285636902 0.42465415596961975 
vt 0.5019013285636902 0.36759236454963684 
vt 0.26864510774612427 0.45734703540802 
vt 0.26765158772468567 0.5144088268280029 
vt 0.41425085067749023 0.5054816007614136 
vt 0.6493836641311646 0.284472793340683 
vt 0.5026740431785583 0.33260735869407654 
vt 0.5026740431785583 0.27542492747306824 
vt 0.45321887731552124 0.21052169799804688 
vt 0.5104014277458191 0.2114868015050888 
vt 0.5013493299484253 0.0647909864783287 
vt 0.17028672993183136 0.6348055601119995 
vt 0.026888826861977577 0.6917466521263123 
vt 0.02335631474852562 0.6348055601119995 
vt 0.26864510774612427 0.5493938326835632 
vt 0.26765158772468567 0.6065762639045715 
vt 0.41425085067749023 0.5975283980369568 
vt 0.556876003742218 0.0647909864783287 
vt 0.6050065159797668 0.2114868015050888 
vt 0.547823965549469 0.2114868015050888 
vt 0.210469052195549 0.6012681722640991 
vt 0.2114625722169876 0.5440857410430908 
vt 0.06486333161592484 0.5530129671096802 
vt 0.09500007331371307 0.208953395485878 
vt 0.04775272682309151 0.16166330873966217 
vt 0.16167624294757843 0.208953395485878 
vt 0.04775272682309151 0.09495048969984055 
vt 0.2089235782623291 0.16166330873966217 
vt 0.09500007331371307 0.04778103157877922 
vt 0.2089235782623291 0.09495048969984055 
vt 0.16167624294757843 0.04778103157877922 
vt 0.6854815483093262 0.45867404341697693 
vt 0.2114625722169876 0.5092213749885559 
vt 0.5028948187828064 0.42465415596961975 
vt 0.26765158772468567 0.45722639560699463 
vt 0.5036675333976746 0.33260735869407654 
vt 0.45321887731552124 0.2114868015050888 
vt 0.027882345020771027 0.6917466521263123 
vt 0.26765158772468567 0.5493938326835632 
vt 0.6050065159797668 0.21052169799804688 
vt 0.2114625722169876 0.6012681722640991 
s on 
f 1/1/1 2/2/2 3/3/3 
f 2/2/2 3/3/3 3/3/3 
f 3/3/3 3/3/3 4/4/4 
f 3/3/3 4/4/4 4/4/4 
f 4/4/4 4/4/4 5/5/5 
f 4/4/4 6/6/6 5/5/5 
f 5/5/5 6/6/6 6/6/6 
f 6/6/6 7/7/7 6/6/6 
f 6/6/6 7/7/7 7/7/7 
f 7/7/7 8/8/8 7/7/7 
f 7/7/7 8/8/8 9/9/9 
f 8/8/8 9/9/9 9/9/9 
f 9/9/9 9/9/9 10/10/10 
f 9/9/9 10/10/10 10/10/10 
f 10/10/10 10/10/10 11/11/11 
f 10/10/10 12/12/12 11/11/11 
f 11/11/11 12/12/12 12/12/12 
f 12/12/12 13/13/13 12/12/12 
f 12/12/12 13/13/13 13/13/13 
f 13/13/13 14/14/14 13/13/13 
f 13/13/13 14/14/14 15/15/15 
f 14/14/14 15/15/15 15/15/15 
f 15/15/15 15/15/15 16/16/16 
f 15/15/15 16/16/16 16/16/16 
f 16/16/16 16/16/16 17/17/17 
f 16/16/16 18/18/18 17/17/17 
f 17/17/17 18/18/18 18/18/18 
f 18/18/18 19/19/19 18/18/18 
f 18/18/18 19/19/19 19/19/19 
f 19/19/19 20/20/20 19/19/19 
f 19/19/19 20/20/20 21/21/21 
f 20/20/20 21/21/21 21/21/21 
f 21/21/21 21/21/21 22/22/22 
f 21/21/21 22/22/22 22/22/22 
f 22/22/22 22/22/22 23/23/23 
f 22/22/22 24/24/24 23/23/23 
f 23/23/23 24/24/24 24/24/24 
f 24/24/24 25/25/25 24/24/24 
f 24/24/24 25/25/25 25/25/25 
f 25/25/25 26/26/26 25/25/25 
f 25/25/25 26/26/26 27/27/27 
f 26/26/26 27/27/27 27/27/27 
f 27/27/27 27/27/27 28/28/28 
f 27/27/27 28/28/28 28/28/28 
f 28/28/28 28/28/28 29/29/29 
f 28/28/28 30/30/30 29/29/29 
f 29/29/29 30/30/30 30/30/30 
f 30/30/30 31/31/31 30/30/30 
f 30/30/30 31/31/31 31/31/31 
f 31/31/31 32/32/32 31/31/31 
f 31/31/31 32/32/32 33/33/33 
f 32/32/32 33/33/33 33/33/33 
f 33/33/33 33/33/33 34/34/34 
f 33/33/33 34/34/34 34/34/34 
f 34/34/34 34/34/34 35/35/35 
f 34/34/34 36/36/36 35/35/35 
f 35/35/35 36/36/36 36/36/36 
f 36/36/36 37/37/37 36/36/36 
f 36/36/36 37/37/37 37/37/37 
f 37/37/37 38/38/38 37/37/37 
f 37/37/37 38/38/38 39/39/39 
f 38/38/38 39/39/39 39/39/39 
f 39/39/39 39/39/39 40/40/40 
f 39/39/39 40/40/40 40/40/40 
f 40/40/40 40/40/40 41/41/41 
f 40/40/40 42/42/42 41/41/41 
f 41/41/41 42/42/42 42/42/42 
f 42/42/42 43/43/43 42/42/42 
f 42/42/42 43/43/43 43/43/43 
f 43/43/43 44/44/44 43/43/43 
f 43/43/43 44/44/44 45/45/45 
f 44/44/44 45/45/45 45/45/45 
f 45/45/45 45/45/45 46/46/46 
f 45/45/45 46/46/46 46/46/46 
f 46/46/46 46/46/46 47/47/47 
f 46/46/46 48/48/48 47/47/47 
f 47/47/47 48/48/48 48/48/48 
f 48/48/48 49/49/49 48/48/48 
f 48/48/48 49/49/49 49/49/49 
f 49/49/49 50/50/50 49/49/49 
f 49/49/49 50/50/50 51/51/51 
f 50/50/50 51/51/51 51/51/51 
f 51/51/51 51/51/51 52/52/52 
f 51/51/51 52/52/52 52/52/52 
f 52/52/52 52/52/52 53/53/53 
f 52/52/52 54/54/54 53/53/53 
f 53/53/53 54/54/54 54/54/54 
f 54/54/54 55/55/55 54/54/54 
f 54/54/54 55/55/55 55/55/55 
f 55/55/55 56/56/56 55/55/55 
f 55/55/55 56/56/56 57/57/57 
f 56/56/56 57/57/57 57/57/57 
f 57/57/57 57/57/57 58/58/58 
f 57/57/57 58/58/58 58/58/58 
f 58/58/58 58/58/58 59/59/59 
f 58/58/58 60/60/60 59/59/59 
f 59/59/59 60/60/60 60/60/60 
f 60/60/60 61/61/61 60/60/60 
f 60/60/60 61/61/61 61/61/61 
f 61/61/61 62/62/62 61/61/61 
f 61/61/61 62/62/62 63/63/63 
f 62/62/62 63/63/63 63/63/63 
f 63/63/63 63/63/63 64/64/64 
f 63/63/63 64/64/64 64/64/64 
f 64/64/64 64/64/64 65/65/65 
f 64/64/64 66/66/66 65/65/65 
f 65/65/65 66/66/66 66/66/66 
f 66/66/66 67/67/67 66/66/66 
f 66/66/66 67/67/67 67/67/67 
f 67/67/67 68/68/68 67/67/67 
f 67/67/67 68/68/68 69/69/69 
f 68/68/68 69/69/69 69/69/69 
f 69/69/69 69/69/69 70/70/70 
f 69/69/69 70/70/70 70/70/70 
f 70/70/70 70/70/70 71/71/71 
f 70/70/70 72/72/72 71/71/71 
f 71/71/71 72/72/72 72/72/72 
f 72/72/72 73/73/73 72/72/72 
f 72/72/72 73/73/73 73/73/73 
f 73/73/73 74/74/74 73/73/73 
f 73/73/73 74/74/74 75/75/75 
f 74/74/74 75/75/75 75/75/75 
f 75/75/75 75/75/75 76/76/76 
f 75/75/75 76/76/76 76/76/76 
f 76/76/76 76/76/76 77/77/77 
f 76/76/76 78/78/78 77/77/77 
f 77/77/77 78/78/78 78/78/78 
f 78/78/78 79/79/79 78/78/78 
f 78/78/78 79/79/79 79/79/79 
f 79/79/79 80/80/80 79/79/79 
f 79/79/79 80/80/80 81/81/81 
f 80/80/80 81/81/81 81/81/81 
f 81/81/81 81/81/81 82/82/82 
f 81/81/81 82/82/82 82/82/82 
f 82/82/82 82/82/82 83/83/83 
f 82/82/82 84/84/84 83/83/83 
f 83/83/83 84/84/84 84/84/84 
f 84/84/84 85/85/85 84/84/84 
f 84/84/84 85/85/85 85/85/85 
f 85/85/85 86/86/86 85/85/85 
f 85/85/85 86/86/86 87/87/87 
f 86/86/86 87/87/87 87/87/87 
f 87/87/87 87/87/87 88/88/88 
f 87/87/87 88/88/88 88/88/88 
f 88/88/88 88/88/88 89/89/89 
f 88/88/88 90/90/90 89/89/89 
f 89/89/89 90/90/90 90/90/90 
f 90/90/90 91/91/91 90/90/90 
f 90/90/90 91/91/91 91/91/91 
f 91/91/91 92/92/92 91/91/91 
f 91/91/91 92/92/92 93/93/93 
f 92/92/92 93/93/93 93/93/93 
f 93/93/93 93/93/93 94/94/94 
f 93/93/93 94/94/94 94/94/94 
f 94/94/94 94/94/94 95/95/95 
f 94/94/94 96/96/96 95/95/95 
f 95/95/95 96/96/96 96/96/96 
f 96/96/96 97/97/97 96/96/96 
f 96/96/96 97/97/97 97/97/97 
f 97/97/97 98/98/98 97/97/97 
f 97/97/97 98/98/98 99/99/99 
f 98/98/98 99/99/99 99/99/99 
f 99/99/99 99/99/99 100/100/100 
f 99/99/99 100/100/100 100/100/100 
f 100/100/100 100/100/100 101/101/101 
f 100/100/100 102/102/102 101/101/101 
f 101/101/101 102/102/102 102/102/102 
f 102/102/102 103/103/103 102/102/102 
f 102/102/102 103/103/103 103/103/103 
f 103/103/103 104/104/104 103/103/103 
f 103/103/103 104/104/104 105/105/105 
f 104/104/104 105/105/105 105/105/105 
f 105/105/105 105/105/105 106/106/106 
f 105/105/105 106/106/106 106/106/106 
f 106/106/106 106/106/106 107/107/107 
f 106/106/106 108/108/108 107/107/107 
f 107/107/107 108/108/108 108/108/108 
f 108/108/108 109/109/109 108/108/108 
f 108/108/108 109/109/109 109/109/109 
f 109/109/109 110/110/110 109/109/109 
f 109/109/109 110/110/110 111/111/111 
f 110/110/110 111/111/111 111/111/111 
f 111/111/111 111/111/111 112/112/112 
f 111/111/111 112/112/112 112/112/112 
f 112/112/112 112/112/112 113/113/113 
f 112/112/112 114/114/114 113/113/113 
f 113/113/113 114/114/114 114/114/114 
f 114/114/114 115/115/115 114/114/114 
f 114/114/114 115/115/115 115/115/115 
f 115/115/115 116/116/116 115/115/115 
f 115/115/115 116/116/116 117/117/117 
f 116/116/116 117/117/117 117/117/117 
f 117/117/117 117/117/117 118/118/118 
f 117/117/117 118/118/118 118/118/118 
f 118/118/118 118/118/118 119/119/119 
f 118/118/118 120/120/120 119/119/119 
f 119/119/119 120/120/120 120/120/120 
f 120/120/120 121/121/121 120/120/120 
f 120/120/120 121/121/121 121/121/121 
f 121/121/121 122/122/122 121/121/121 
f 121/121/121 122/122/122 123/123/123 
f 122/122/122 123/123/123 123/123/123 
f 123/123/123 123/123/123 124/124/124 
f 123/123/123 124/124/124 124/124/124 
f 124/124/124 124/124/124 125/125/125 
f 124/124/124 126/126/126 125/125/125 
f 125/125/125 126/126/126 126/126/126 
f 126/126/126 127/127/127 126/126/126 
f 126/126/126 127/127/127 127/127/127 
f 127/127/127 128/128/128 127/127/127 
f 127/127/127 128/128/128 129/129/129 
f 128/128/128 129/129/129 129/129/129 
f 129/129/129 129/129/129 130/130/130 
f 129/129/129 130/130/130 130/130/130 
f 130/130/130 130/130/130 131/131/131 
f 130/130/130 132/132/132 131/131/131 
f 131/131/131 132/132/132 132/132/132 
f 132/132/132 133/133/133 132/132/132 
f 132/132/132 133/133/133 133/133/133 
f 133/133/133 134/134/134 133/133/133 
f 133/133/133 134/134/134 135/135/135 
f 134/134/134 135/135/135 135/135/135 
f 135/135/135 135/135/135 136/136/136 
f 135/135/135 136/136/136 136/136/136 
f 136/136/136 136/136/136 137/137/137 
f 136/136/136 138/138/138 137/137/137 
f 137/137/137 138/138/138 138/138/138 
f 138/138/138 139/139/139 138/138/138 
f 138/138/138 139/139/139 139/139/139 
f 139/139/139 140/140/140 139/139/139 
f 139/139/139 140/140/140 141/141/141 
f 140/140/140 142/142/142 141/141/141 
f 141/141/141 142/142/142 142/142/142 
f 142/142/142 143/143/143 142/142/142 
f 142/142/142 143/143/143 143/143/143 
f 143/143/143 144/144/144 143/143/143 
f 143/143/143 144/144/144 145/145/145 
f 144/144/144 146/146/146 145/145/145 
f 145/145/145 146/146/146 146/146/146 
f 146/146/146 147/147/147 146/146/146 
f 146/146/146 147/147/147 147/147/147 
f 147/147/147 148/148/148 147/147/147 
f 147/147/147 148/148/148 149/149/149 
f 148/148/148 150/150/150 149/149/149 
f 149/149/149 150/150/150 150/150/150 
f 150/150/150 151/151/151 150/150/150 
f 150/150/150 151/151/151 151/151/151 
f 151/151/151 152/152/152 151/151/151 
f 151/151/151 152/152/152 153/153/153 
f 152/152/152 154/154/154 153/153/153 
f 153/153/153 154/154/154 154/154/154 
f 154/154/154 155/155/155 154/154/154 
f 154/154/154 155/155/155 155/155/155 
f 155/155/155 156/156/156 155/155/155 
f 155/155/155 156/156/156 157/157/157 
f 156/156/156 158/158/158 157/157/157 
f 157/157/157 158/158/158 158/158/158 
f 158/158/158 159/159/159 158/158/158 
f 158/158/158 159/159/159 159/159/159 
f 159/159/159 160/160/160 159/159/159 
f 159/159/159 160/160/160 161/161/161 
f 160/160/160 162/162/162 161/161/161 
f 161/161/161 162/162/162 162/162/162 
f 162/162/162 163/163/163 162/162/162 
f 162/162/162 163/163/163 163/163/163 
f 163/163/163 164/164/164 163/163/163 
f 163/163/163 164/164/164 165/165/165 
f 164/164/164 166/166/166 165/165/165 
f 165/165/165 166/166/166 166/166/166 
f 166/166/166 167/167/167 166/166/166 
f 166/166/166 167/167/167 167/167/167 
f 167/167/167 168/168/168 167/167/167 
f 167/167/167 168/168/168 169/169/169 
f 168/168/168 170/170/170 169/169/169 
f 169/169/169 170/170/170 170/170/170 
f 170/170/170 171/171/171 170/170/170 
f 170/170/170 171/171/171 171/171/171 
f 171/171/171 172/172/172 171/171/171 
f 171/171/171 172/172/172 173/173/173 
f 172/172/172 174/174/174 173/173/173 
f 173/173/173 174/174/174 174/174/174 
f 174/174/174 175/175/175 174/174/174 
f 174/174/174 175/175/175 175/175/175 
f 175/175/175 176/176/176 175/175/175 
f 175/175/175 176/176/176 177/177/177 
f 176/176/176 178/178/178 177/177/177 
f 177/177/177 178/178/178 178/178/178 
f 178/178/178 179/179/179 178/178/178 
f 178/178/178 179/179/179 179/179/179 
f 179/179/179 180/180/180 179/179/179 
f 179/179/179 180/180/180 181/181/181 
f 180/180/180 182/182/182 181/181/181 
f 181/181/181 182/182/182 182/182/182 
f 182/182/182 183/183/183 182/182/182 
f 182/182/182 183/183/183 183/183/183 
f 183/183/183 184/184/184 183/183/183 
f 183/183/183 184/184/184 185/185/185 
f 184/184/184 186/186/186 185/185/185 
f 185/185/185 186/186/186 186/186/186 
f 186/186/186 187/187/187 186/186/186 
f 186/186/186 187/187/187 187/187/187 
f 187/187/187 188/188/188 187/187/187 
f 187/187/187 188/188/188 189/189/189 
f 188/188/188 190/190/190 189/189/189 
f 189/189/189 190/190/190 190/190/190 
f 190/190/190 191/191/191 190/190/190 
f 190/190/190 191/191/191 191/191/191 
f 191/191/191 192/192/192 191/191/191 
f 191/191/191 192/192/192 193/193/193 
f 192/192/192 194/194/194 193/193/193 
f 193/193/193 194/194/194 194/194/194 
f 194/194/194 195/195/195 194/194/194 
f 194/194/194 195/195/195 195/195/195 
f 195/195/195 196/196/196 195/195/195 
f 195/195/195 196/196/196 197/197/197 
f 196/196/196 198/198/198 197/197/197 
f 197/197/197 198/198/198 198/198/198 
f 198/198/198 199/199/199 198/198/198 
f 198/198/198 199/199/199 199/199/199 
f 199/199/199 200/200/200 199/199/199 
f 199/199/199 200/200/200 201/201/201 
f 200/200/200 202/202/202 201/201/201 
f 201/201/201 202/202/202 202/202/202 
f 202/202/202 203/203/203 202/202/202 
f 202/202/202 203/203/203 203/203/203 
f 203/203/203 204/204/204 203/203/203 
f 203/203/203 204/204/204 205/205/205 
f 204/204/204 206/206/206 205/205/205 
f 205/205/205 206/206/206 206/206/206 
f 206/206/206 207/207/207 206/206/206 
f 206/206/206 207/207/207 207/207/207 
f 207/207/207 208/208/208 207/207/207 
f 207/207/207 208/208/208 209/209/209 
f 208/208/208 210/210/210 209/209/209 
f 209/209/209 210/210/210 210/210/210 
f 210/210/210 211/211/211 210/210/210 
f 210/210/210 211/211/211 211/211/211 
f 211/211/211 212/212/212 211/211/211 
f 211/211/211 212/212/212 213/213/213 
f 212/212/212 214/214/214 213/213/213 
f 213/213/213 214/214/214 214/214/214 
f 214/214/214 215/215/215 214/214/214 
f 214/214/214 215/215/215 215/215/215 
f 215/215/215 216/216/216 215/215/215 
f 215/215/215 216/216/216 217/217/217 
f 216/216/216 218/218/218 217/217/217 
f 217/217/217 218/218/218 218/218/218 
f 218/218/218 219/219/219 218/218/218 
f 218/218/218 219/219/219 219/219/219 
f 219/219/219 220/220/220 219/219/219 
f 219/219/219 220/220/220 221/221/221 
f 220/220/220 222/222/222 221/221/221 
f 221/221/221 222/222/222 222/222/222 
f 222/222/222 223/223/223 222/222/222 
f 222/222/222 223/223/223 223/223/223 
f 223/223/223 224/224/224 223/223/223 
f 223/223/223 224/224/224 225/225/225 
f 224/224/224 226/226/226 225/225/225 
f 225/225/225 226/226/226 226/226/226 
f 226/226/226 227/227/227 226/226/226 
f 226/226/226 227/227/227 227/227/227 
f 227/227/227 228/228/228 227/227/227 
f 227/227/227 228/228/228 229/229/229 
f 228/228/228 230/230/230 229/229/229 
f 229/229/229 230/230/230 230/230/230 
f 230/230/230 231/231/231 230/230/230 
f 230/230/230 231/231/231 231/231/231 
f 231/231/231 232/232/232 231/231/231 
f 231/231/231 232/232/232 233/233/233 
f 232/232/232 234/234/234 233/233/233 
f 233/233/233 234/234/234 234/234/234 
f 234/234/234 235/235/235 234/234/234 
f 234/234/234 235/235/235 235/235/235 
f 235/235/235 236/236/236 235/235/235 
f 235/235/235 236/236/236 237/237/237 
f 236/236/236 237/237/237 237/237/237 
f 237/237/237 237/237/237 238/238/238 
f 237/237/237 238/238/238 238/238/238 
f 238/238/238 238/238/238 239/239/239 
f 238/238/238 240/240/240 239/239/239 
f 239/239/239 240/240/240 240/240/240 
f 240/240/240 241/241/241 240/240/240 
f 240/240/240 241/241/241 241/241/241 
f 241/241/241 242/242/242 241/241/241 
f 241/241/241 242/242/242 243/243/243 
f 242/242/242 243/243/243 243/243/243 
f 243/243/243 243/243/243 244/244/244 
f 243/243/243 244/244/244 244/244/244 
f 244/244/244 244/244/244 245/245/245 
f 244/244/244 246/246/246 245/245/245 
f 245/245/245 246/246/246 246/246/246 
f 246/246/246 247/247/247 246/246/246 
f 246/246/246 247/247/247 247/247/247 
f 247/247/247 248/248/248 247/247/247 
f 247/247/247 248/248/248 249/249/249 
f 248/248/248 249/249/249 249/249/249 
f 249/249/249 249/249/249 250/250/250 
f 249/249/249 250/250/250 250/250/250 
f 250/250/250 250/250/250 251/251/251 
f 250/250/250 252/252/252 251/251/251 
f 251/251/251 252/252/252 252/252/252 
f 252/252/252 253/253/253 252/252/252 
f 252/252/252 253/253/253 253/253/253 
f 253/253/253 254/254/254 253/253/253 
f 253/253/253 254/254/254 255/255/255 
f 254/254/254 255/255/255 255/255/255 
f 255/255/255 255/255/255 256/256/256 
f 255/255/255 256/256/256 256/256/256 
f 256/256/256 256/256/256 257/257/257 
f 256/256/256 258/258/258 257/257/257 
f 257/257/257 258/258/258 258/258/258 
f 258/258/258 259/259/259 258/258/258 
f 258/258/258 259/259/259 259/259/259 
f 259/259/259 260/260/260 259/259/259 
f 259/259/259 260/260/260 261/261/261 
f 260/260/260 261/261/261 261/261/261 
f 261/261/261 261/261/261 262/262/262 
f 261/261/261 262/262/262 262/262/262 
f 262/262/262 262/262/262 263/263/263 
f 262/262/262 264/264/264 263/263/263 
f 263/263/263 264/264/264 264/264/264 
f 264/264/264 265/265/265 264/264/264 
f 264/264/264 265/265/265 265/265/265 
f 265/265/265 266/266/266 265/265/265 
f 265/265/265 266/266/266 267/267/267 
f 266/266/266 268/268/268 267/267/267 
f 267/267/267 268/268/268 269/269/269 
f 268/268/268 270/270/270 269/269/269 
f 269/269/269 270/270/270 271/271/271 
f 270/270/270 272/272/272 271/271/271 

